<?xml version="1.0" encoding="UTF-8"?>
<svg width="700pt" height="700pt" version="1.1" viewBox="0 0 700 700" xmlns="http://www.w3.org/2000/svg">
 <path d="m551.11 326.55c-12.59 2.5898-25.418 3.8789-38.273 3.8477-51.035-0.054688-99.965-20.352-136.05-56.441-36.09-36.09-56.387-85.02-56.445-136.06-0.066407-20.457 3.2266-40.789 9.75-60.18 1.9922-5.9219 0.67969-12.453-3.4414-17.145-4.125-4.6914-10.438-6.8281-16.562-5.6055-52.492 10.629-99.551 39.438-132.89 81.352-33.34 41.914-50.824 94.246-49.375 147.79 1.4531 53.535 21.742 104.85 57.305 144.89s84.113 66.262 137.1 74.035c52.992 7.7695 107.02-3.4023 152.59-31.555 45.562-28.148 79.734-71.473 96.496-122.34 1.9492-5.9336 0.58594-12.461-3.5781-17.121-4.1641-4.6602-10.5-6.7422-16.617-5.4688z"/>
</svg>
